<svg width="512" height="256" viewBox="0 0 512 256" fill="none" xmlns="http://www.w3.org/2000/svg">
<path d="M186.618 124.496H186.311L177.639 137.684H153.995L174.079 106L154.362 76.458H179.115L186.26 89.4577H186.507L193.711 76.458H218.465L198.628 106.06L218.891 137.641H195.077L186.618 124.496Z" fill="#EA275E"/>
<path d="M228.868 134.962C224.04 132.359 220.045 128.444 217.345 123.669C214.51 118.614 213.066 112.897 213.163 107.101C213.065 101.284 214.539 95.5483 217.431 90.4996C220.253 85.6687 224.4 81.7471 229.38 79.1985C234.773 76.4478 240.758 75.0643 246.81 75.1697C252.004 75.1586 257.138 76.274 261.858 78.4388C266.499 80.5075 270.524 83.7421 273.544 87.828L258.709 100.461C257.362 98.7393 255.638 97.3496 253.67 96.3982C251.702 95.4468 249.542 94.959 247.356 94.9723C245.791 94.9057 244.23 95.1701 242.774 95.7481C241.317 96.3261 240 97.2048 238.906 98.3268C237.83 99.4784 236.993 100.831 236.442 102.308C235.891 103.785 235.638 105.356 235.697 106.931C235.635 108.544 235.898 110.154 236.47 111.664C237.042 113.174 237.911 114.554 239.026 115.722C240.14 116.855 241.479 117.744 242.956 118.332C244.432 118.92 246.016 119.194 247.604 119.137C249.703 119.186 251.787 118.761 253.699 117.893C255.611 117.026 257.303 115.738 258.649 114.126L273.851 127.373C270.727 131.062 266.76 133.943 262.285 135.772C256.919 137.996 251.15 139.086 245.342 138.973C239.599 139.063 233.928 137.682 228.868 134.962V134.962Z" fill="#EA275E"/>
<path d="M279.212 66.0441C277.85 64.7626 276.814 63.1747 276.189 61.4124C275.564 59.65 275.369 57.7641 275.62 55.9111C275.87 54.0581 276.559 52.2916 277.629 50.7583C278.699 49.225 280.12 47.9692 281.773 47.095C283.813 46.0201 286.09 45.4742 288.396 45.5074C291.799 45.3848 295.113 46.612 297.615 48.9216C298.79 50.0047 299.719 51.3269 300.34 52.7992C300.962 54.2715 301.261 55.8598 301.217 57.4573C301.263 59.0752 300.966 60.6846 300.345 62.1794C299.724 63.6742 298.794 65.0205 297.615 66.1294C295.053 68.3424 291.781 69.5601 288.396 69.5601C285.011 69.5601 281.739 68.3424 279.178 66.1294L279.212 66.0441ZM277.257 76.4575H299.544V137.683H277.257V76.4575Z" fill="#EA275E"/>
<path d="M320.907 137.708C318.729 136.9 316.752 135.631 315.112 133.987C313.356 132.157 312.032 129.958 311.236 127.551C310.252 124.62 309.776 121.543 309.828 118.452V94.1596H303.179V76.4567H309.828V57.226L332.114 54.9043V76.4567H345.421V94.1596H332.114V113.629C332.106 114.374 332.145 115.118 332.234 115.857C332.321 116.514 332.484 117.158 332.72 117.778C332.954 118.414 333.396 118.953 333.975 119.305C334.632 119.688 335.383 119.878 336.143 119.852C337.701 119.858 339.242 119.526 340.659 118.879L346.087 134.456C340.692 137.705 334.453 139.276 328.162 138.972C325.688 138.991 323.23 138.563 320.907 137.708V137.708Z" fill="#EA275E"/>
<path d="M406.838 112.528H366.644C366.831 113.854 367.301 115.125 368.023 116.253C368.744 117.381 369.7 118.341 370.826 119.067C373.386 120.644 376.356 121.428 379.362 121.32C384.449 121.32 389.149 119.061 393.462 114.543L405.003 127.244C401.92 130.938 397.994 133.836 393.556 135.694C388.32 137.949 382.663 139.063 376.963 138.963C371.24 139.048 365.591 137.67 360.549 134.96C355.718 132.352 351.725 128.428 349.035 123.642C346.315 118.567 344.881 112.902 344.861 107.144C344.84 101.387 346.232 95.7118 348.915 90.6174C351.547 85.8429 355.473 81.908 360.242 79.2651C365.244 76.4923 370.886 75.0796 376.605 75.168C380.808 75.1391 384.976 75.9396 388.87 77.5238C392.538 78.9848 395.871 81.1742 398.669 83.9596C401.46 86.8204 403.641 90.2179 405.079 93.9463C406.664 97.98 407.46 102.28 407.427 106.613C407.466 108.601 407.268 110.587 406.838 112.528V112.528ZM370.135 94.3389C368.311 95.8518 367.098 97.9747 366.72 100.314H385.763C385.507 99.124 385.087 97.9751 384.517 96.8996C384.002 95.9409 383.33 95.0754 382.528 94.3389C381.746 93.616 380.821 93.0637 379.814 92.7172C378.744 92.3468 377.618 92.1621 376.485 92.1709C374.178 92.1162 371.927 92.8848 370.135 94.3389Z" fill="#EA275E"/>
<path d="M416.714 180.427C415.231 179.035 414.058 177.354 413.267 175.491C412.476 173.628 412.086 171.624 412.12 169.604C412.1 167.606 412.501 165.626 413.298 163.79C414.096 161.954 415.272 160.302 416.752 158.94C419.196 156.561 422.362 155.039 425.765 154.605C429.169 154.17 432.622 154.849 435.598 156.536C437.946 157.869 439.904 159.78 441.281 162.083C442.669 164.338 443.403 166.927 443.403 169.566C443.441 171.591 443.054 173.602 442.265 175.472C441.476 177.341 440.302 179.029 438.819 180.427C435.859 183.282 431.885 184.881 427.747 184.881C423.609 184.881 419.636 183.282 416.676 180.427H416.714ZM412.745 66.3039L442.503 59.0532L437.767 142.626H417.538L412.745 66.3039Z" fill="#EA275E"/>
<path d="M188.218 153.165C189.041 153.323 189.842 153.579 190.604 153.929C191.355 154.272 192.035 154.752 192.609 155.345C193.214 155.986 193.719 156.715 194.104 157.508C194.575 158.47 194.907 159.493 195.091 160.547C195.325 161.865 195.437 163.202 195.425 164.54V181.388H185.227V167.07C185.259 166.031 185.124 164.995 184.829 163.999C184.644 163.343 184.225 162.778 183.652 162.408C183.005 162.092 182.288 161.944 181.568 161.979C181.001 161.954 180.436 162.064 179.919 162.299C179.402 162.534 178.948 162.888 178.593 163.331C177.78 164.538 177.399 165.985 177.511 167.435V181.388H167.313V153.515H177.511V156.57C178.488 155.415 179.707 154.49 181.082 153.861C182.457 153.231 183.954 152.912 185.466 152.926C186.389 152.918 187.31 152.998 188.218 153.165V153.165Z" fill="#EA275E"/>
<path d="M218.718 153.166C219.541 153.323 220.342 153.58 221.104 153.929C221.855 154.272 222.534 154.753 223.109 155.345C223.714 155.986 224.218 156.716 224.604 157.509C225.074 158.47 225.407 159.493 225.591 160.547C225.825 161.865 225.937 163.202 225.925 164.541V181.388H215.727V167.07C215.75 165.991 215.594 164.916 215.266 163.888C215.08 163.232 214.661 162.667 214.088 162.297C213.441 161.981 212.724 161.833 212.004 161.868C211.437 161.843 210.872 161.953 210.355 162.188C209.838 162.423 209.384 162.777 209.029 163.22C208.223 164.43 207.843 165.874 207.947 167.325V181.388H197.766V153.516H207.963V156.57C208.94 155.416 210.159 154.491 211.534 153.861C212.909 153.232 214.406 152.913 215.918 152.927C216.857 152.915 217.795 152.995 218.718 153.166V153.166Z" fill="#EA275E"/>
<path d="M234.559 180.21C232.287 179.06 230.396 177.275 229.119 175.071C227.857 172.744 227.196 170.138 227.196 167.491C227.196 164.843 227.857 162.237 229.119 159.91C230.4 157.705 232.289 155.916 234.559 154.755C237.037 153.549 239.758 152.921 242.514 152.921C245.27 152.921 247.99 153.549 250.468 154.755C252.731 155.921 254.614 157.71 255.893 159.91C257.178 162.23 257.851 164.839 257.851 167.491C257.851 170.142 257.178 172.751 255.893 175.071C254.618 177.271 252.734 179.055 250.468 180.21C247.99 181.417 245.27 182.044 242.514 182.044C239.758 182.044 237.037 181.417 234.559 180.21V180.21ZM246.141 171.46C247.045 170.331 247.537 168.928 247.537 167.483C247.537 166.037 247.045 164.634 246.141 163.505C245.684 162.994 245.122 162.587 244.493 162.312C243.864 162.038 243.184 161.902 242.498 161.914C241.798 161.912 241.105 162.052 240.462 162.328C239.837 162.596 239.277 162.995 238.819 163.497C238.361 163.999 238.015 164.593 237.805 165.239C237.546 165.953 237.416 166.707 237.423 167.467C237.418 168.075 237.504 168.681 237.678 169.264C237.816 169.834 238.059 170.373 238.393 170.855C238.69 171.298 239.055 171.69 239.475 172.017C239.888 172.355 240.356 172.619 240.859 172.796C241.373 172.966 241.91 173.052 242.45 173.051C243.144 173.07 243.834 172.937 244.471 172.663C245.109 172.388 245.679 171.977 246.141 171.46V171.46Z" fill="#EA275E"/>
<path d="M286.042 153.517L275.367 181.389H266.171L255.48 153.453H266.028L270.721 169.362H270.944L275.478 153.453L286.042 153.517Z" fill="#EA275E"/>
<path d="M313.312 153.517V181.39H303.639V178.765H303.559C302.702 179.83 301.601 180.675 300.35 181.228C299.099 181.782 297.734 182.028 296.369 181.946C294.562 181.963 292.772 181.594 291.119 180.865C289.556 180.18 288.157 179.172 287.014 177.905C285.831 176.559 284.928 174.991 284.357 173.292C283.693 171.39 283.365 169.388 283.387 167.374C283.371 165.372 283.694 163.382 284.341 161.487C284.897 159.795 285.778 158.228 286.934 156.874C288.026 155.616 289.371 154.603 290.88 153.899C292.408 153.185 294.077 152.821 295.764 152.833C297.144 152.81 298.512 153.098 299.765 153.676C301.018 154.255 302.125 155.108 303.003 156.174H303.082V153.422L313.312 153.517ZM302.175 171.558C303.081 170.406 303.573 168.982 303.573 167.517C303.573 166.051 303.081 164.628 302.175 163.476C301.728 162.984 301.183 162.591 300.575 162.322C299.966 162.052 299.309 161.913 298.644 161.913C297.978 161.913 297.321 162.052 296.713 162.322C296.104 162.591 295.559 162.984 295.112 163.476C294.203 164.633 293.71 166.062 293.71 167.533C293.71 169.004 294.203 170.432 295.112 171.59C295.551 172.102 296.099 172.51 296.715 172.785C297.331 173.06 298.001 173.195 298.675 173.181C299.335 173.18 299.986 173.035 300.583 172.754C301.179 172.474 301.707 172.065 302.128 171.558H302.175Z" fill="#EA275E"/>
<path d="M322.097 181.468C321.101 181.094 320.196 180.514 319.44 179.765C318.64 178.928 318.036 177.923 317.674 176.822C317.226 175.485 317.01 174.08 317.038 172.67V161.534H313.999V153.468H317.085V144.797L327.251 143.731V153.579H333.328V161.645H327.251V170.538C327.224 170.877 327.224 171.218 327.251 171.556C327.29 171.856 327.365 172.15 327.474 172.431C327.575 172.721 327.771 172.968 328.031 173.131C328.336 173.305 328.682 173.392 329.033 173.386C329.741 173.383 330.44 173.231 331.085 172.94L333.567 180.036C332.438 180.71 331.23 181.244 329.972 181.627C328.482 182.014 326.945 182.19 325.406 182.152C324.27 182.128 323.149 181.896 322.097 181.468V181.468Z" fill="#EA275E"/>
<path d="M334.916 153.532H345.082V181.389H334.916V153.532Z" fill="#EA275E"/>
<path d="M354.265 180.21C352.015 179.035 350.153 177.234 348.904 175.024C347.631 172.7 346.964 170.093 346.964 167.443C346.964 164.793 347.631 162.186 348.904 159.862C350.185 157.658 352.074 155.868 354.345 154.708C356.823 153.501 359.543 152.874 362.299 152.874C365.055 152.874 367.776 153.501 370.254 154.708C372.517 155.874 374.399 157.662 375.679 159.862C376.963 162.183 377.637 164.791 377.637 167.443C377.637 170.095 376.963 172.704 375.679 175.024C374.403 177.223 372.519 179.008 370.254 180.162C367.776 181.369 365.055 181.996 362.299 181.996C359.543 181.996 356.823 181.369 354.345 180.162L354.265 180.21ZM365.831 171.46C366.811 170.379 367.331 168.957 367.279 167.499C367.345 166.029 366.837 164.592 365.863 163.49C365.406 162.978 364.843 162.571 364.215 162.297C363.586 162.022 362.906 161.887 362.22 161.899C361.52 161.896 360.827 162.037 360.183 162.312C359.559 162.581 358.998 162.979 358.54 163.481C358.082 163.983 357.736 164.577 357.526 165.224C357.267 165.938 357.138 166.692 357.145 167.451C357.14 168.06 357.226 168.665 357.399 169.249C357.539 169.815 357.776 170.354 358.099 170.84C358.406 171.279 358.776 171.67 359.197 172.001C359.609 172.34 360.078 172.604 360.581 172.781C361.094 172.95 361.631 173.036 362.172 173.035C362.86 173.058 363.545 172.929 364.178 172.657C364.81 172.384 365.375 171.976 365.831 171.46V171.46Z" fill="#EA275E"/>
<path d="M399.97 153.165C400.788 153.32 401.585 153.577 402.34 153.929C403.093 154.276 403.777 154.755 404.361 155.344C404.961 155.99 405.465 156.718 405.856 157.508C406.321 158.47 406.647 159.493 406.827 160.547C407.061 161.865 407.173 163.201 407.161 164.54V181.388H396.963V167.069C397.036 165.997 396.923 164.921 396.629 163.888C396.449 163.229 396.029 162.662 395.452 162.297C394.81 161.98 394.098 161.833 393.383 161.867C392.816 161.84 392.25 161.949 391.733 162.184C391.215 162.419 390.761 162.774 390.408 163.219C389.589 164.424 389.202 165.871 389.311 167.324V181.388H379.129V153.515H389.327V156.569C390.303 155.415 391.523 154.49 392.897 153.861C394.272 153.231 395.769 152.912 397.281 152.926C398.183 152.922 399.083 153.002 399.97 153.165V153.165Z" fill="#EA275E"/>
<path d="M154.887 149.045C154.265 148.459 153.792 147.734 153.506 146.928C153.22 146.123 153.131 145.261 153.246 144.414C153.36 143.567 153.675 142.76 154.164 142.059C154.653 141.358 155.302 140.784 156.058 140.385C156.99 139.893 158.031 139.644 159.085 139.659C160.64 139.603 162.155 140.164 163.298 141.22C163.835 141.715 164.26 142.319 164.544 142.992C164.828 143.665 164.964 144.39 164.944 145.121C164.966 145.86 164.83 146.596 164.546 147.279C164.262 147.962 163.837 148.577 163.298 149.084C162.127 150.095 160.632 150.652 159.085 150.652C157.538 150.652 156.042 150.095 154.872 149.084L154.887 149.045ZM153.994 153.804H164.18V181.786H153.994V153.804Z" fill="#EA275E"/>
<path d="M106.604 100.817C107.297 97.75 108.761 94.9107 110.858 92.5675H110.848C111.676 91.6069 112.698 90.8329 113.847 90.297C114.996 89.761 116.246 89.4752 117.514 89.4585C117.901 89.4405 118.287 89.4995 118.65 89.6321C119.014 89.7647 119.347 89.9683 119.631 90.231C119.889 90.4649 120.093 90.7509 120.231 91.0699C120.369 91.3889 120.438 91.7336 120.433 92.0811C120.433 96.042 115.823 98.9539 106.604 100.817Z" fill="url(#paint0_linear_3451_7133)"/>
<path fill-rule="evenodd" clip-rule="evenodd" d="M146.74 179.663V210.501C146.74 210.501 129.854 210.659 111.008 200.405C89.7015 188.771 68.628 163.567 68.628 127.619L68.5947 56.9535C68.6088 55.722 68.9322 54.5139 69.5353 53.4401C70.1383 52.3663 71.0017 51.4614 72.0459 50.8085C73.0901 50.1557 74.2818 49.7758 75.5112 49.7039C76.7406 49.632 77.9684 49.8704 79.0816 50.3971C87.0558 54.1003 95.3864 56.9821 103.944 58.9977C117.704 62.2602 131.746 64.186 145.875 64.748V135.132C145.875 136.454 145.35 137.722 144.415 138.657C143.48 139.592 142.212 140.117 140.889 140.117H112.362C114.049 159.878 123.888 172.75 146.74 179.663ZM136.807 119.347L122.302 111.555C119.822 115.249 116.783 117.096 113.185 117.096C111.823 117.083 110.496 116.668 109.37 115.904C108.075 115.007 107.094 113.726 106.566 112.242L106.623 112.127C109.955 111.591 113.256 110.881 116.513 110.001C119.55 109.18 122.513 108.108 125.373 106.796C127.942 105.651 130.365 104.204 132.592 102.486C134.54 100.957 136.161 99.0536 137.36 96.8876C138.553 94.7723 139.174 92.3828 139.163 89.9544C139.187 87.8307 138.789 85.7234 137.99 83.7555C137.286 81.9825 136.217 80.3773 134.852 79.0444C133.495 77.7581 131.956 76.6785 130.284 75.8401C128.574 74.9755 126.76 74.3344 124.886 73.9327C123.005 73.5308 121.087 73.3294 119.164 73.3319C115.409 73.3033 111.678 73.9327 108.14 75.1916C104.859 76.3403 101.812 78.0719 99.1466 80.3032C96.559 82.4914 94.3235 85.0646 92.5185 87.9326C90.654 90.8819 89.2487 94.0976 88.351 97.4694C87.411 100.971 86.9396 104.582 86.9491 108.208C86.9491 116.047 89.0917 122.128 93.3768 126.451C97.662 130.775 103.648 132.936 111.335 132.936C122.69 132.936 131.18 128.407 136.807 119.347Z" fill="url(#paint1_linear_3451_7133)"/>
<defs>
<linearGradient id="paint0_linear_3451_7133" x1="68.5747" y1="130.087" x2="146.74" y2="130.087" gradientUnits="userSpaceOnUse">
<stop stop-color="#EA275E"/>
<stop offset="1" stop-color="#F7941D"/>
</linearGradient>
<linearGradient id="paint1_linear_3451_7133" x1="68.5747" y1="130.087" x2="146.74" y2="130.087" gradientUnits="userSpaceOnUse">
<stop stop-color="#EA275E"/>
<stop offset="1" stop-color="#F7941D"/>
</linearGradient>
</defs>
</svg>
