<svg width="256" height="256" viewBox="0 0 256 256" fill="none" xmlns="http://www.w3.org/2000/svg">
<g clip-path="url(#clip0_6656_21086)">
<path d="M0 128C0 57.3076 57.3078 0 128 0C198.693 0 256.001 57.3076 256.001 128C256.001 198.692 198.693 256 128 256C57.3078 256 0 198.692 0 128Z" fill="white"/>
<path fill-rule="evenodd" clip-rule="evenodd" d="M128 256C198.692 256 256 198.692 256 128C256 57.3076 198.692 0 128 0C57.3074 0 0 57.3076 0 128C0 198.692 57.3074 256 128 256ZM167.932 59.6278C169.875 52.7236 163.175 48.6409 157.056 53.0004L71.6359 113.853C64.9998 118.581 66.0436 128 73.2039 128H95.6973V127.826H139.536L103.816 140.429L88.0686 196.372C86.1249 203.277 92.8244 207.359 98.9441 203L184.364 142.147C191 137.419 189.956 128 182.796 128H148.685L167.932 59.6278Z" fill="#DA154D"/>
</g>
<defs>
<clipPath id="clip0_6656_21086">
<path d="M0 128C0 57.3076 57.3078 0 128 0C198.693 0 256.001 57.3076 256.001 128C256.001 198.692 198.693 256 128 256C57.3078 256 0 198.692 0 128Z" fill="white"/>
</clipPath>
</defs>
</svg>
