<svg width="78" height="32" viewBox="0 0 78 32" fill="none" xmlns="http://www.w3.org/2000/svg">
<path d="M22.6998 14.9252H22.6418L21.0033 17.4167H16.5363L20.3308 11.4305L16.6056 5.84912H21.2823L22.6321 8.3052H22.6789L24.04 5.84912H28.7167L24.9689 11.4418L28.7973 17.4087H24.298L22.6998 14.9252Z" fill="#EA275E"/>
<path d="M30.6825 16.9024C29.7702 16.4106 29.0155 15.671 28.5054 14.7688C27.9697 13.8137 27.697 12.7336 27.7152 11.6386C27.6967 10.5396 27.9753 9.45587 28.5216 8.50201C29.0548 7.58929 29.8382 6.84836 30.7793 6.36685C31.798 5.84716 32.9289 5.58577 34.0723 5.60567C35.0535 5.60359 36.0235 5.81431 36.9154 6.22332C37.7921 6.61416 38.5527 7.2253 39.1232 7.99725L36.3204 10.384C36.0658 10.0588 35.7402 9.7962 35.3684 9.61645C34.9966 9.4367 34.5885 9.34454 34.1755 9.34704C33.8798 9.33447 33.5848 9.38442 33.3097 9.49363C33.0346 9.60283 32.7856 9.76885 32.579 9.98082C32.3757 10.1984 32.2175 10.454 32.1134 10.733C32.0094 11.012 31.9615 11.3088 31.9726 11.6064C31.961 11.9112 32.0107 12.2153 32.1187 12.5007C32.2268 12.786 32.391 13.0467 32.6016 13.2674C32.8122 13.4815 33.0651 13.6494 33.3441 13.7605C33.6231 13.8715 33.9222 13.9233 34.2223 13.9125C34.6189 13.9217 35.0125 13.8414 35.3738 13.6775C35.7351 13.5137 36.0548 13.2704 36.3091 12.9659L39.1812 15.4687C38.591 16.1656 37.8414 16.7099 36.9961 17.0556C35.9821 17.4757 34.8923 17.6816 33.795 17.6603C32.7098 17.6772 31.6384 17.4163 30.6825 16.9024V16.9024Z" fill="#EA275E"/>
<path d="M40.194 3.88165C39.9368 3.63953 39.741 3.33953 39.6229 3.00656C39.5049 2.6736 39.468 2.31727 39.5153 1.96719C39.5626 1.6171 39.6928 1.28335 39.8949 0.993658C40.0971 0.703966 40.3655 0.466689 40.6778 0.301537C41.0633 0.0984483 41.4936 -0.00468486 41.9292 0.00158255C42.5721 -0.0215799 43.1982 0.210281 43.6709 0.646647C43.8929 0.85127 44.0685 1.10107 44.1859 1.37924C44.3033 1.65741 44.3597 1.9575 44.3514 2.25931C44.3602 2.56499 44.3041 2.86906 44.1868 3.15148C44.0695 3.4339 43.8937 3.68825 43.6709 3.89777C43.187 4.31587 42.5688 4.54593 41.9292 4.54593C41.2897 4.54593 40.6715 4.31587 40.1876 3.89777L40.194 3.88165ZM39.8247 5.84909H44.0354V17.4167H39.8247V5.84909Z" fill="#EA275E"/>
<path d="M48.0718 17.4216C47.6603 17.269 47.2868 17.0291 46.9768 16.7185C46.6451 16.3729 46.395 15.9574 46.2446 15.5026C46.0588 14.9489 45.9688 14.3675 45.9786 13.7835V9.19385H44.7223V5.84919H45.9786V2.21587L50.1892 1.77722V5.84919H52.7033V9.19385H50.1892V12.8723C50.1875 13.013 50.1951 13.1536 50.2118 13.2932C50.2282 13.4173 50.2591 13.5391 50.3037 13.6561C50.3478 13.7763 50.4314 13.8781 50.5408 13.9447C50.6648 14.0171 50.8068 14.0529 50.9504 14.048C51.2447 14.0491 51.5358 13.9864 51.8035 13.8641L52.8291 16.8072C51.8098 17.421 50.631 17.7179 49.4426 17.6603C48.975 17.664 48.5106 17.5831 48.0718 17.4216V17.4216Z" fill="#EA275E"/>
<path d="M64.3064 12.6642H56.7124C56.7477 12.9148 56.8366 13.1548 56.9729 13.3679C57.1093 13.5811 57.2899 13.7624 57.5026 13.8995C57.9863 14.1975 58.5474 14.3456 59.1152 14.3252C60.0764 14.3252 60.9644 13.8984 61.7794 13.0448L63.9597 15.4444C63.3773 16.1424 62.6356 16.69 61.7971 17.041C60.8077 17.467 59.7391 17.6775 58.6621 17.6586C57.5808 17.6746 56.5134 17.4142 55.5609 16.9023C54.6481 16.4096 53.8937 15.6681 53.3855 14.7639C52.8716 13.8051 52.6008 12.7348 52.5968 11.647C52.5929 10.5592 52.8559 9.48701 53.3629 8.52451C53.8602 7.62244 54.6019 6.87901 55.5029 6.37967C56.448 5.8558 57.5139 5.5889 58.5943 5.6056C59.3886 5.60014 60.1761 5.75139 60.9117 6.05069C61.6047 6.32673 62.2345 6.74037 62.7631 7.26664C63.2903 7.80713 63.7023 8.44903 63.9742 9.15345C64.2735 9.91554 64.424 10.7279 64.4177 11.5466C64.425 11.9223 64.3877 12.2974 64.3064 12.6642V12.6642ZM57.3719 9.22763C57.0274 9.51346 56.7982 9.91455 56.7269 10.3565H60.3247C60.2762 10.1317 60.197 9.91462 60.0893 9.71143C59.9919 9.5303 59.8649 9.36677 59.7135 9.22763C59.5657 9.09104 59.391 8.9867 59.2007 8.92123C58.9985 8.85126 58.7858 8.81635 58.5718 8.81802C58.1359 8.80769 57.7105 8.9529 57.3719 9.22763Z" fill="#EA275E"/>
<path d="M66.6706 23.4851C66.4182 23.2452 66.2183 22.9555 66.0837 22.6343C65.9491 22.3131 65.8826 21.9675 65.8884 21.6193C65.8849 21.2749 65.9533 20.9335 66.089 20.617C66.2248 20.3004 66.4251 20.0157 66.677 19.7808C67.0933 19.3708 67.6324 19.1083 68.2119 19.0334C68.7914 18.9586 69.3794 19.0755 69.8862 19.3664C70.286 19.5962 70.6194 19.9256 70.8538 20.3227C71.0902 20.7115 71.2152 21.1578 71.2151 21.6128C71.2217 21.9619 71.1557 22.3086 71.0213 22.6309C70.887 22.9532 70.6872 23.2441 70.4345 23.4851C69.9305 23.9774 69.2539 24.253 68.5493 24.253C67.8448 24.253 67.1682 23.9774 66.6641 23.4851H66.6706ZM65.9949 3.81067L71.0619 2.56067L70.2555 16.9684H66.8109L65.9949 3.81067Z" fill="#EA275E"/>
<path d="M18.6681 20.2357C18.7516 20.2517 18.8328 20.2777 18.91 20.3131C18.9861 20.3479 19.055 20.3966 19.1132 20.4566C19.1746 20.5216 19.2257 20.5956 19.2648 20.6759C19.3125 20.7734 19.3461 20.8771 19.3648 20.984C19.3886 21.1175 19.3999 21.2531 19.3986 21.3887V23.0965H18.3649V21.6451C18.3681 21.5399 18.3545 21.4348 18.3246 21.3339C18.3058 21.2674 18.2634 21.2101 18.2053 21.1726C18.1396 21.1406 18.067 21.1256 17.994 21.1291C17.9365 21.1266 17.8792 21.1378 17.8268 21.1616C17.7744 21.1854 17.7284 21.2212 17.6925 21.2662C17.6101 21.3885 17.5714 21.5352 17.5828 21.6822V23.0965H16.5491V20.2712H17.5828V20.5808C17.6818 20.4638 17.8054 20.37 17.9448 20.3062C18.0841 20.2424 18.2358 20.21 18.3891 20.2115C18.4827 20.2106 18.5761 20.2187 18.6681 20.2357V20.2357Z" fill="#EA275E"/>
<path d="M21.7596 20.2356C21.8431 20.2516 21.9243 20.2776 22.0015 20.313C22.0776 20.3478 22.1465 20.3965 22.2047 20.4565C22.2661 20.5215 22.3172 20.5955 22.3563 20.6759C22.404 20.7733 22.4376 20.877 22.4563 20.9839C22.4801 21.1175 22.4914 21.253 22.4902 21.3887V23.0965H21.4564V21.6451C21.4588 21.5357 21.443 21.4267 21.4097 21.3225C21.3908 21.2561 21.3484 21.1987 21.2903 21.1613C21.2247 21.1292 21.152 21.1142 21.0791 21.1177C21.0216 21.1153 20.9643 21.1264 20.9119 21.1502C20.8595 21.174 20.8135 21.2099 20.7775 21.2548C20.6958 21.3775 20.6572 21.5239 20.6678 21.6709V23.0965H19.6357V20.2711H20.6695V20.5807C20.7685 20.4637 20.8921 20.37 21.0314 20.3061C21.1708 20.2423 21.3225 20.21 21.4758 20.2114C21.571 20.2102 21.666 20.2183 21.7596 20.2356V20.2356Z" fill="#EA275E"/>
<path d="M23.3658 22.9772C23.1354 22.8606 22.9438 22.6797 22.8143 22.4563C22.6864 22.2204 22.6194 21.9563 22.6194 21.6879C22.6194 21.4195 22.6864 21.1554 22.8143 20.9195C22.9442 20.696 23.1356 20.5146 23.3658 20.397C23.617 20.2746 23.8928 20.2111 24.1722 20.2111C24.4516 20.2111 24.7273 20.2746 24.9785 20.397C25.2079 20.5151 25.3987 20.6964 25.5284 20.9195C25.6586 21.1547 25.7269 21.4191 25.7269 21.6879C25.7269 21.9567 25.6586 22.2211 25.5284 22.4563C25.3991 22.6793 25.2081 22.8602 24.9785 22.9772C24.7273 23.0995 24.4516 23.1631 24.1722 23.1631C23.8928 23.1631 23.617 23.0995 23.3658 22.9772V22.9772ZM24.5398 22.0903C24.6314 21.9758 24.6814 21.8337 24.6814 21.6871C24.6814 21.5405 24.6314 21.3983 24.5398 21.2839C24.4935 21.2321 24.4365 21.1908 24.3728 21.163C24.3091 21.1352 24.2401 21.1214 24.1705 21.1227C24.0996 21.1224 24.0293 21.1367 23.9641 21.1646C23.9008 21.1918 23.844 21.2321 23.7976 21.283C23.7511 21.3339 23.7161 21.3942 23.6948 21.4597C23.6685 21.5321 23.6554 21.6085 23.6561 21.6855C23.6556 21.7472 23.6643 21.8086 23.6819 21.8677C23.696 21.9255 23.7206 21.9801 23.7545 22.029C23.7845 22.0738 23.8215 22.1135 23.8641 22.1467C23.9059 22.181 23.9534 22.2078 24.0044 22.2257C24.0565 22.2429 24.1109 22.2516 24.1657 22.2515C24.236 22.2535 24.306 22.24 24.3706 22.2122C24.4352 22.1843 24.493 22.1427 24.5398 22.0903V22.0903Z" fill="#EA275E"/>
<path d="M28.5844 20.2712L27.5023 23.0966H26.5702L25.4865 20.2648H26.5557L27.0314 21.8774H27.054L27.5136 20.2648L28.5844 20.2712Z" fill="#EA275E"/>
<path d="M31.3485 20.2711V23.0965H30.368V22.8304H30.36C30.273 22.9384 30.1615 23.0241 30.0346 23.0802C29.9078 23.1363 29.7695 23.1612 29.631 23.153C29.4479 23.1546 29.2665 23.1172 29.0989 23.0433C28.9405 22.974 28.7986 22.8717 28.6828 22.7433C28.5629 22.6069 28.4713 22.4479 28.4135 22.2757C28.3462 22.0829 28.3129 21.8799 28.3151 21.6758C28.3135 21.4728 28.3462 21.2711 28.4119 21.0791C28.4682 20.9075 28.5575 20.7487 28.6747 20.6114C28.7854 20.4839 28.9217 20.3812 29.0747 20.3098C29.2296 20.2375 29.3987 20.2005 29.5698 20.2018C29.7097 20.1994 29.8483 20.2287 29.9753 20.2873C30.1024 20.3459 30.2145 20.4325 30.3035 20.5405H30.3116V20.2615L31.3485 20.2711ZM30.2197 22.0999C30.3115 21.9831 30.3614 21.8388 30.3614 21.6903C30.3614 21.5417 30.3115 21.3975 30.2197 21.2807C30.1743 21.2308 30.119 21.1909 30.0574 21.1636C29.9957 21.1364 29.9291 21.1223 29.8616 21.1223C29.7942 21.1223 29.7276 21.1364 29.6659 21.1636C29.6043 21.1909 29.549 21.2308 29.5036 21.2807C29.4116 21.398 29.3615 21.5428 29.3615 21.6919C29.3615 21.841 29.4116 21.9858 29.5036 22.1031C29.5482 22.155 29.6037 22.1964 29.6662 22.2243C29.7286 22.2522 29.7965 22.2659 29.8649 22.2644C29.9317 22.2644 29.9977 22.2496 30.0582 22.2212C30.1187 22.1928 30.1722 22.1513 30.2148 22.0999H30.2197Z" fill="#EA275E"/>
<path d="M32.2388 23.1046C32.1378 23.0668 32.046 23.008 31.9694 22.9321C31.8883 22.8472 31.8271 22.7453 31.7904 22.6338C31.745 22.4982 31.7232 22.3558 31.7259 22.2128V21.084H31.4179V20.2664H31.7308V19.3875L32.7613 19.2794V20.2777H33.3773V21.0953H32.7613V21.9968C32.7585 22.0311 32.7585 22.0656 32.7613 22.1C32.7652 22.1303 32.7727 22.1601 32.7838 22.1887C32.7941 22.218 32.814 22.2431 32.8403 22.2596C32.8712 22.2772 32.9063 22.2861 32.9419 22.2854C33.0136 22.2851 33.0845 22.2697 33.1499 22.2403L33.4015 22.9595C33.287 23.0278 33.1646 23.082 33.037 23.1208C32.886 23.16 32.7302 23.1779 32.5742 23.174C32.4591 23.1716 32.3454 23.1481 32.2388 23.1046V23.1046Z" fill="#EA275E"/>
<path d="M33.6288 19.7889C33.5401 19.7025 33.4828 19.5888 33.4662 19.4661C33.4495 19.3433 33.4744 19.2185 33.5369 19.1116C33.588 19.0271 33.661 18.958 33.7482 18.9116C33.8427 18.8625 33.948 18.8376 34.0546 18.839C34.1329 18.8365 34.211 18.8495 34.2843 18.8772C34.3576 18.9048 34.4248 18.9467 34.4819 19.0003C34.5352 19.0507 34.5772 19.1118 34.605 19.1797C34.6328 19.2475 34.6458 19.3205 34.6432 19.3938C34.6461 19.4683 34.6333 19.5426 34.6055 19.6118C34.5777 19.681 34.5356 19.7436 34.4819 19.7954C34.3664 19.9035 34.2127 19.9615 34.0546 19.9566C33.976 19.9584 33.8979 19.9445 33.8248 19.9157C33.7517 19.8869 33.6851 19.8438 33.6288 19.7889V19.7889ZM33.5385 20.2727H34.569V23.0965H33.5385V20.2727Z" fill="#EA275E"/>
<path d="M35.4996 22.9772C35.2715 22.858 35.0827 22.6754 34.9561 22.4514C34.8271 22.2159 34.7595 21.9516 34.7595 21.683C34.7595 21.4144 34.8271 21.1502 34.9561 20.9146C35.086 20.6911 35.2775 20.5097 35.5076 20.3921C35.7588 20.2698 36.0346 20.2062 36.314 20.2062C36.5934 20.2062 36.8691 20.2698 37.1203 20.3921C37.3497 20.5102 37.5405 20.6915 37.6702 20.9146C37.8004 21.1498 37.8687 21.4142 37.8687 21.683C37.8687 21.9518 37.8004 22.2162 37.6702 22.4514C37.5409 22.6744 37.3499 22.8553 37.1203 22.9723C36.8691 23.0947 36.5934 23.1582 36.314 23.1582C36.0346 23.1582 35.7588 23.0947 35.5076 22.9723L35.4996 22.9772ZM36.672 22.0902C36.7714 21.9806 36.824 21.8365 36.8187 21.6887C36.8255 21.5397 36.774 21.3939 36.6752 21.2823C36.6288 21.2304 36.5719 21.1892 36.5081 21.1614C36.4444 21.1335 36.3754 21.1198 36.3059 21.121C36.2349 21.1207 36.1647 21.135 36.0995 21.1629C36.0362 21.1901 35.9794 21.2305 35.9329 21.2814C35.8865 21.3323 35.8515 21.3925 35.8302 21.458C35.8039 21.5304 35.7908 21.6069 35.7915 21.6838C35.791 21.7455 35.7997 21.8069 35.8173 21.866C35.8315 21.9235 35.8555 21.978 35.8882 22.0273C35.9193 22.0718 35.9568 22.1115 35.9995 22.145C36.0413 22.1794 36.0888 22.2061 36.1398 22.2241C36.1918 22.2412 36.2463 22.25 36.3011 22.2499C36.3708 22.2522 36.4402 22.2391 36.5044 22.2115C36.5685 22.1839 36.6257 22.1425 36.672 22.0902V22.0902Z" fill="#EA275E"/>
<path d="M40.1327 20.2357C40.2157 20.2514 40.2964 20.2774 40.373 20.3131C40.4493 20.3483 40.5187 20.3969 40.5778 20.4566C40.6387 20.522 40.6897 20.5959 40.7294 20.6759C40.7765 20.7735 40.8096 20.8772 40.8278 20.9839C40.8516 21.1175 40.8629 21.253 40.8616 21.3887V23.0965H39.8279V21.6451C39.8353 21.5365 39.8239 21.4274 39.7941 21.3226C39.7758 21.2558 39.7332 21.1983 39.6747 21.1613C39.6097 21.1293 39.5375 21.1143 39.4651 21.1178C39.4075 21.1151 39.3502 21.1261 39.2977 21.1499C39.2453 21.1737 39.1993 21.2097 39.1635 21.2549C39.0805 21.377 39.0412 21.5237 39.0522 21.6709V23.0965H38.0201V20.2711H39.0539V20.5808C39.1529 20.4638 39.2765 20.37 39.4158 20.3062C39.5552 20.2424 39.7069 20.21 39.8602 20.2115C39.9516 20.211 40.0428 20.2191 40.1327 20.2357V20.2357Z" fill="#EA275E"/>
<path d="M42.8112 22.9772C42.5879 22.8571 42.4033 22.6758 42.2791 22.4547C42.1515 22.219 42.0847 21.9551 42.0847 21.6871C42.0847 21.419 42.1515 21.1552 42.2791 20.9195C42.4089 20.696 42.6004 20.5146 42.8306 20.397C43.08 20.2698 43.357 20.2061 43.6369 20.2115C43.8767 20.211 44.1138 20.2621 44.332 20.3615C44.5466 20.4575 44.7332 20.6068 44.8738 20.7953L44.1868 21.3807C44.1244 21.301 44.0446 21.2366 43.9535 21.1924C43.8624 21.1482 43.7624 21.1255 43.6611 21.1259C43.5884 21.1236 43.5159 21.1368 43.4487 21.1646C43.3814 21.1924 43.3208 21.2342 43.2709 21.2871C43.1708 21.3951 43.1175 21.5383 43.1225 21.6855C43.1198 21.7602 43.132 21.8348 43.1582 21.9048C43.1845 21.9748 43.2245 22.039 43.2757 22.0935C43.3271 22.1463 43.3889 22.1879 43.4572 22.2156C43.5254 22.2434 43.5987 22.2567 43.6724 22.2547C43.7696 22.2571 43.8661 22.2374 43.9546 22.1972C44.0431 22.157 44.1214 22.0973 44.1836 22.0225L44.8867 22.6353C44.7428 22.8061 44.5597 22.9395 44.3529 23.024C44.1046 23.1267 43.8379 23.1772 43.5692 23.1723C43.3041 23.1728 43.0432 23.1056 42.8112 22.9772V22.9772Z" fill="#EA275E"/>
<path d="M45.5995 22.9772C45.3696 22.8606 45.1785 22.6796 45.0496 22.4563C44.9206 22.2208 44.853 21.9565 44.853 21.6879C44.853 21.4193 44.9206 21.155 45.0496 20.9195C45.1789 20.6961 45.3698 20.5147 45.5995 20.397C45.8507 20.2746 46.1265 20.2111 46.4059 20.2111C46.6853 20.2111 46.961 20.2746 47.2122 20.397C47.4417 20.5155 47.6329 20.6967 47.7637 20.9195C47.8927 21.155 47.9604 21.4193 47.9604 21.6879C47.9604 21.9565 47.8927 22.2208 47.7637 22.4563C47.6333 22.679 47.4419 22.8597 47.2122 22.9772C46.961 23.0995 46.6853 23.1631 46.4059 23.1631C46.1265 23.1631 45.8507 23.0995 45.5995 22.9772V22.9772ZM46.7735 22.0903C46.8674 21.9769 46.9188 21.8343 46.9188 21.6871C46.9188 21.5399 46.8674 21.3973 46.7735 21.2839C46.7272 21.2321 46.6702 21.1908 46.6065 21.163C46.5428 21.1352 46.4738 21.1214 46.4042 21.1227C46.3333 21.1224 46.263 21.1367 46.1978 21.1646C46.1368 21.1921 46.082 21.2316 46.0366 21.2807C45.9897 21.3328 45.9535 21.3936 45.9301 21.4597C45.9039 21.5321 45.8907 21.6085 45.8914 21.6855C45.8909 21.7472 45.8996 21.8086 45.9172 21.8677C45.9313 21.9255 45.9559 21.9801 45.9898 22.029C46.0203 22.0734 46.0573 22.1131 46.0995 22.1467C46.1416 22.1814 46.1897 22.2081 46.2414 22.2257C46.2934 22.2431 46.3478 22.2518 46.4026 22.2515C46.4711 22.2518 46.5388 22.2376 46.6014 22.2098C46.6639 22.182 46.7198 22.1413 46.7655 22.0903H46.7735Z" fill="#EA275E"/>
<path d="M52.655 21.4451V23.0965H51.6245V21.6725C51.6245 21.6274 51.6245 21.5854 51.6245 21.5467C51.6217 21.5077 51.6163 21.4689 51.6084 21.4306C51.6025 21.3954 51.5933 21.3609 51.581 21.3274C51.5697 21.2968 51.5551 21.2676 51.5374 21.2403C51.5203 21.2154 51.499 21.1936 51.4745 21.1758C51.4493 21.1582 51.4216 21.1446 51.3923 21.1355C51.3585 21.1244 51.323 21.1189 51.2875 21.1194C51.2342 21.1186 51.1816 21.131 51.1343 21.1555C51.0871 21.1799 51.0466 21.2157 51.0165 21.2597C50.938 21.3824 50.9012 21.5272 50.9117 21.6725V23.0965H49.8731V21.6725C49.874 21.6001 49.8686 21.5278 49.857 21.4564C49.8481 21.3967 49.8307 21.3386 49.8054 21.2839C49.7832 21.2331 49.7461 21.1904 49.699 21.1613C49.6498 21.1334 49.5942 21.119 49.5377 21.1194C49.4825 21.1178 49.4277 21.1296 49.378 21.1538C49.3283 21.1779 49.2852 21.2137 49.2523 21.2581C49.1721 21.3807 49.1341 21.5263 49.1442 21.6725V23.0965H48.1121V20.2711H49.1442V20.5936C49.2356 20.4737 49.353 20.376 49.4877 20.3082C49.6174 20.2453 49.7597 20.2127 49.9038 20.213C50.0617 20.2012 50.2199 20.2321 50.3618 20.3024C50.5037 20.3728 50.624 20.4801 50.7101 20.613H50.7198C50.8317 20.4803 50.9727 20.3751 51.1318 20.3058C51.291 20.2364 51.464 20.2047 51.6374 20.213C52.3158 20.212 52.655 20.6227 52.655 21.4451Z" fill="#EA275E"/>
<path d="M55.0497 20.2599C55.1568 20.2924 55.2588 20.3396 55.3529 20.4002C55.447 20.4618 55.5318 20.5368 55.6045 20.6227C55.6803 20.7126 55.7453 20.8111 55.798 20.9162C55.8535 21.0302 55.8952 21.1504 55.9221 21.2743C55.9516 21.4093 55.9663 21.5472 55.9657 21.6855C55.9717 21.9509 55.9165 22.2141 55.8044 22.4547C55.7022 22.6698 55.5404 22.8512 55.3384 22.9772C55.1327 23.1028 54.8955 23.1671 54.6546 23.1627C54.5221 23.1673 54.3903 23.1424 54.2686 23.0897C54.147 23.0369 54.0387 22.9578 53.9515 22.8579H53.9418V24.2464H52.9113V20.2712H53.9483V20.555C54.0413 20.4448 54.1577 20.3567 54.2891 20.2973C54.4206 20.2378 54.5636 20.2085 54.7078 20.2115C54.8235 20.2107 54.9387 20.2271 55.0497 20.2599V20.2599ZM54.782 22.1015C54.8741 21.9842 54.9241 21.8394 54.9241 21.6903C54.9241 21.5412 54.8741 21.3964 54.782 21.2791C54.7377 21.2269 54.6822 21.1854 54.6197 21.1574C54.5572 21.1295 54.4892 21.116 54.4208 21.1178C54.3502 21.1156 54.2799 21.129 54.215 21.1568C54.1501 21.1847 54.0921 21.2264 54.045 21.2791C53.9493 21.3948 53.8969 21.5402 53.8969 21.6903C53.8969 21.8405 53.9493 21.9859 54.045 22.1015C54.0921 22.1542 54.1501 22.196 54.215 22.2238C54.2799 22.2517 54.3502 22.265 54.4208 22.2628C54.4892 22.2643 54.557 22.2506 54.6195 22.2227C54.6819 22.1948 54.7374 22.1535 54.782 22.1015V22.1015Z" fill="#EA275E"/>
<path d="M59.0233 20.2711V23.0965H58.0428V22.8304C57.9558 22.9383 57.8442 23.0239 57.7174 23.08C57.5906 23.1361 57.4523 23.1611 57.3139 23.153C57.1307 23.1546 56.9493 23.1172 56.7817 23.0433C56.6231 22.9736 56.4808 22.8714 56.364 22.7433C56.2411 22.6123 56.1453 22.4583 56.0818 22.2902C56.0158 22.0971 55.9831 21.8943 55.9851 21.6903C55.9837 21.4875 56.0159 21.2859 56.0802 21.0936C56.1371 20.922 56.2269 20.7631 56.3447 20.6259C56.455 20.4981 56.5914 20.3953 56.7446 20.3244C56.8991 20.2521 57.0676 20.2152 57.2381 20.2163C57.3782 20.2141 57.517 20.2433 57.6443 20.3019C57.7716 20.3606 57.8841 20.447 57.9735 20.555V20.276L59.0233 20.2711ZM57.8945 22.0999C57.9874 21.9836 58.038 21.8391 58.038 21.6903C58.038 21.5414 57.9874 21.397 57.8945 21.2807C57.8511 21.2294 57.797 21.1883 57.7359 21.1604C57.6749 21.1326 57.6084 21.1185 57.5413 21.1194C57.4726 21.1178 57.4045 21.1314 57.3418 21.1593C57.279 21.1872 57.2232 21.2286 57.1784 21.2807C57.0874 21.3984 57.038 21.5431 57.038 21.6919C57.038 21.8407 57.0874 21.9854 57.1784 22.1031C57.2234 22.155 57.2792 22.1963 57.3419 22.2242C57.4046 22.252 57.4727 22.2658 57.5413 22.2644C57.6076 22.264 57.673 22.2491 57.7329 22.2206C57.7928 22.1922 57.8458 22.151 57.888 22.0999H57.8945Z" fill="#EA275E"/>
<path d="M61.4037 20.2356C61.4867 20.2513 61.5674 20.2773 61.644 20.313C61.7203 20.3482 61.7896 20.3968 61.8488 20.4565C61.9096 20.5219 61.9607 20.5958 62.0004 20.6758C62.0475 20.7734 62.0806 20.8771 62.0987 20.9838C62.1225 21.1174 62.1339 21.2529 62.1326 21.3886V23.0964H61.0989V21.645C61.1029 21.5398 61.0893 21.4346 61.0586 21.3338C61.0403 21.267 60.9977 21.2095 60.9392 21.1725C60.8742 21.1405 60.802 21.1255 60.7296 21.129C60.672 21.1263 60.6147 21.1373 60.5622 21.1611C60.5098 21.1849 60.4638 21.2209 60.428 21.2661C60.3449 21.3882 60.3057 21.5349 60.3167 21.6821V23.0964H59.283V20.2711H60.3167V20.5807C60.4158 20.4637 60.5394 20.3699 60.6787 20.3061C60.8181 20.2423 60.9698 20.2099 61.1231 20.2114C61.2172 20.2104 61.3111 20.2185 61.4037 20.2356V20.2356Z" fill="#EA275E"/>
<path d="M65.0837 20.2711L63.6323 24.2463H62.6292L63.113 22.8933L62.0293 20.2711H63.0937L63.5775 21.6112H63.5872L64.0403 20.2711H65.0837Z" fill="#EA275E"/>
<path d="M16.2282 20.3018H15.1993V23.1368H16.2282V20.3018Z" fill="#EA275E"/>
<path d="M7.37646 10.7137C7.51096 10.1185 7.79507 9.56752 8.20191 9.11278H8.20006C8.36069 8.92635 8.55908 8.77615 8.7821 8.67214C9.00512 8.56812 9.24769 8.51266 9.49376 8.50942C9.56876 8.50592 9.64371 8.51737 9.71425 8.54311C9.78479 8.56885 9.8495 8.60836 9.90463 8.65933C9.95452 8.70473 9.99418 8.76023 10.021 8.82213C10.0478 8.88404 10.0611 8.95093 10.0601 9.01838C10.0601 9.78708 9.16555 10.3522 7.37646 10.7137Z" fill="#EA275E"/>
<path fill-rule="evenodd" clip-rule="evenodd" d="M15.1655 26.0154V31.9999C15.1655 31.9999 11.8885 32.0306 8.23102 30.0406C4.09616 27.7828 0.00645002 22.8916 0.00645002 15.9153L0 2.20121C0.00272521 1.96222 0.0654916 1.72776 0.182527 1.51937C0.299562 1.31099 0.467111 1.13537 0.669766 1.00867C0.87242 0.881971 1.10368 0.808256 1.34227 0.794302C1.58086 0.780349 1.81914 0.826605 2.03518 0.928818C3.58272 1.64751 5.19941 2.20676 6.86026 2.59792C9.53049 3.23109 12.2556 3.60481 14.9977 3.71388V17.3731C14.9977 17.6297 14.8958 17.8759 14.7143 18.0573C14.5329 18.2388 14.2868 18.3407 14.0301 18.3407H8.49388C8.82125 22.1756 10.7306 24.6736 15.1655 26.0154ZM13.2379 14.3098L10.4228 12.7977C9.94164 13.5145 9.35186 13.873 8.6535 13.873C8.38934 13.8704 8.13181 13.7899 7.91319 13.6416C7.6618 13.4676 7.47146 13.219 7.36906 12.9309L7.38016 12.9087C8.02666 12.8046 8.66728 12.6669 9.29942 12.496C9.88877 12.3366 10.4639 12.1286 11.0188 11.8741C11.5174 11.6519 11.9877 11.3711 12.4198 11.0376C12.7978 10.7409 13.1125 10.3715 13.3452 9.95118C13.5767 9.54066 13.6973 9.07693 13.695 8.60566C13.6998 8.19351 13.6224 7.78455 13.4674 7.40265C13.3308 7.05856 13.1233 6.74705 12.8585 6.48837C12.595 6.23874 12.2963 6.02921 11.9719 5.86651C11.6401 5.69871 11.288 5.57431 10.9244 5.49635C10.5594 5.41835 10.1872 5.37926 9.81394 5.37975C9.08517 5.3742 8.36106 5.49635 7.67444 5.74065C7.03771 5.96358 6.44646 6.29964 5.92915 6.73267C5.42699 7.15732 4.99315 7.6567 4.64286 8.21329C4.28101 8.78566 4.00829 9.40972 3.83407 10.0641C3.65165 10.7437 3.56017 11.4444 3.562 12.1481C3.562 13.6694 3.97781 14.8496 4.80943 15.6886C5.64105 16.5276 6.80272 16.9471 8.29445 16.9471C10.4981 16.9471 12.1459 16.068 13.2379 14.3098Z" fill="#EA275E"/>
<path d="M77.4727 6.04873C77.3055 5.67707 77.101 5.36116 76.8223 5.08242C76.5436 4.80367 76.2276 4.58067 75.856 4.43201C75.4843 4.28334 75.0941 4.19043 74.6667 4.19043C74.2393 4.19043 73.849 4.26476 73.4774 4.43201C73.1057 4.58067 72.7898 4.80367 72.511 5.08242C72.2323 5.36116 72.0093 5.67707 71.8606 6.04873C71.712 6.42039 71.619 6.81064 71.619 7.23805C71.619 7.66546 71.6934 8.0557 71.8606 8.42736C72.0093 8.79902 72.2323 9.11494 72.511 9.39368C72.7898 9.67243 73.1057 9.89542 73.4774 10.0441C73.849 10.1928 74.2393 10.2857 74.6667 10.2857C75.0941 10.2857 75.4843 10.2113 75.856 10.0441C76.2276 9.87684 76.5436 9.67243 76.8223 9.39368C77.101 9.11494 77.324 8.79902 77.4727 8.42736C77.6214 8.0557 77.7143 7.66546 77.7143 7.23805C77.7143 6.81064 77.6214 6.42039 77.4727 6.04873ZM76.5993 8.35303C76.3949 8.68753 76.1347 8.96627 75.8002 9.17068C75.4657 9.3751 75.0941 9.46801 74.6667 9.46801C74.2578 9.46801 73.8862 9.3751 73.5331 9.17068C73.1986 8.96627 72.9199 8.70611 72.734 8.35303C72.5296 8.01854 72.4367 7.64688 72.4367 7.21947C72.4367 6.81064 72.5296 6.43898 72.734 6.0859C72.9384 5.75141 73.1986 5.47266 73.5331 5.26825C73.8862 5.08242 74.2578 4.9895 74.6667 4.9895C75.0755 4.9895 75.4472 5.08242 75.8002 5.28683C76.1347 5.49124 76.4135 5.75141 76.6179 6.10448C76.8223 6.43898 76.9152 6.81064 76.9152 7.23805C76.8966 7.64688 76.8037 8.01854 76.5993 8.35303Z" fill="#EA275E"/>
<path d="M75.7816 7.21947C75.8746 7.0708 75.9117 6.90356 75.9117 6.71773C75.9117 6.51331 75.8746 6.34607 75.7816 6.21598C75.6887 6.06732 75.5772 5.9744 75.4286 5.90007C75.2799 5.82574 75.1127 5.78857 74.9454 5.78857H73.5703V8.59461H74.295V7.64688H74.7596L75.187 8.59461H75.9861L75.4471 7.5168C75.5958 7.44246 75.6887 7.34955 75.7816 7.21947ZM75.0197 7.01505C74.9454 7.08939 74.8525 7.12655 74.741 7.12655H74.295V6.32748H74.7596C74.8711 6.32748 74.9454 6.36465 75.0383 6.4204C75.1127 6.47615 75.1498 6.56906 75.1498 6.71773C75.1498 6.84781 75.1127 6.95931 75.0197 7.01505Z" fill="#EA275E"/>
</svg>
